<svg xmlns="http://www.w3.org/2000/svg" viewBox="0 0 32 32" width="32" height="32">
  <defs>
    <linearGradient id="bg" x1="0%" y1="0%" x2="100%" y2="100%">
      <stop offset="0%" style="stop-color:#1e3a8a"/>
      <stop offset="100%" style="stop-color:#2563eb"/>
    </linearGradient>
  </defs>
  <rect width="32" height="32" rx="6" fill="url(#bg)"/>
  <g transform="translate(5, 4) rotate(-8, 11, 14)">
    <rect x="1" y="1" width="18" height="24" rx="2" fill="#60a5fa" stroke="#3b82f6" stroke-width="0.5"/>
    <rect x="4" y="4" width="12" height="2" rx="1" fill="white" opacity="0.8"/>
    <rect x="4" y="8" width="10" height="1.5" rx="0.75" fill="white" opacity="0.4"/>
    <rect x="4" y="11" width="11" height="1.5" rx="0.75" fill="white" opacity="0.4"/>
    <line x1="1" y1="1" x2="1" y2="25" stroke="#1d4ed8" stroke-width="1.5"/>
  </g>
  <g transform="translate(14, 3) rotate(10, 9, 14)">
    <rect x="1" y="1" width="16" height="22" rx="2" fill="#93c5fd" stroke="#60a5fa" stroke-width="0.5"/>
    <rect x="4" y="4" width="10" height="2" rx="1" fill="white" opacity="0.8"/>
    <rect x="4" y="8" width="8" height="1.5" rx="0.75" fill="white" opacity="0.4"/>
    <rect x="4" y="11" width="9" height="1.5" rx="0.75" fill="white" opacity="0.4"/>
    <line x1="1" y1="1" x2="1" y2="23" stroke="#2563eb" stroke-width="1.5"/>
  </g>
</svg>
